<?xml version="1.0" standalone="no"?>
<!DOCTYPE svg PUBLIC "-//W3C//DTD SVG 20010904//EN"
 "http://www.w3.org/TR/2001/REC-SVG-20010904/DTD/svg10.dtd">
<svg version="1.0" xmlns="http://www.w3.org/2000/svg"
 width="512.000000pt" height="512.000000pt" viewBox="0 0 512.000000 512.000000"
 preserveAspectRatio="xMidYMid meet">

<g transform="translate(0.000000,512.000000) scale(0.100000,-0.100000)"
fill="#000000" stroke="none">
<path d="M2350 5105 c-507 -62 -954 -337 -1241 -764 -303 -449 -376 -1021
-197 -1540 151 -440 413 -916 1150 -2096 151 -242 305 -491 342 -553 73 -122
99 -147 157 -147 51 0 86 28 128 101 19 32 188 307 376 609 574 924 763 1250
960 1657 226 468 300 767 275 1118 -72 1002 -958 1736 -1950 1615z m400 -236
c585 -72 1084 -494 1254 -1061 60 -201 79 -422 52 -624 -28 -215 -87 -386
-246 -712 -184 -376 -347 -656 -863 -1485 -182 -294 -345 -556 -360 -582 l-28
-47 -103 168 c-56 93 -204 331 -327 529 -706 1130 -966 1630 -1051 2030 -29
134 -31 415 -4 550 95 485 387 875 811 1085 164 81 325 130 500 153 66 9 285
6 365 -4z"/>
<path d="M2397 4315 c-197 -38 -363 -121 -500 -254 -143 -137 -236 -309 -278
-516 -15 -76 -15 -261 0 -342 46 -241 188 -466 386 -609 68 -50 214 -118 310
-146 69 -20 102 -23 245 -23 141 0 176 4 244 23 536 154 831 698 664 1222 -98
307 -363 552 -679 630 -112 28 -289 34 -392 15z m316 -241 c95 -21 238 -91
308 -151 255 -217 329 -561 185 -858 -97 -198 -251 -328 -461 -386 -102 -28
-259 -30 -355 -5 -256 67 -456 263 -526 516 -28 99 -26 282 5 380 67 218 214
382 420 469 120 51 290 65 424 35z"/>
</g>
</svg>
